<?xml version="1.0" encoding="UTF-8"?>
<svg width="100" height="100" viewBox="0 0 100 100" fill="none" xmlns="http://www.w3.org/2000/svg">
  <circle cx="50" cy="50" r="50" fill="#E5E7EB"/>
  <path d="M50 45C53.3137 45 56 42.3137 56 39C56 35.6863 53.3137 33 50 33C46.6863 33 44 35.6863 44 39C44 42.3137 46.6863 45 50 45Z" fill="#9CA3AF"/>
  <path d="M36 61C36 56.5817 39.5817 53 44 53H56C60.4183 53 64 56.5817 64 61V63C64 64.1046 63.1046 65 62 65H38C36.8954 65 36 64.1046 36 63V61Z" fill="#9CA3AF"/>
</svg>